<?xml version="1.0" encoding="UTF-8"?>
<svg id="Layer_1" xmlns="http://www.w3.org/2000/svg" version="1.1" viewBox="0 0 100 22.938">
  <!-- Generator: Adobe Illustrator 30.0.0, SVG Export Plug-In . SVG Version: 2.1.1 Build 123)  -->
  <defs>
    <style>
      .st0 {
        fill: #fff;
      }

      .st1 {
        fill: #e6f001;
      }
    </style>
  </defs>
  <g id="Letters">
    <g id="c">
      <g>
        <path class="st0" d="M0,22.62c.063-.381.128-2.637.128-6.64V7.37C.128,3.368.063,1.112,0,.731c1.588-.096,3.272-.127,4.448-.127,7.307,0,10.452,1.525,10.452,4.733,0,2.732-2.192,4.289-6.354,5.305,5.019.159,7.974,2.065,7.974,5.464,0,4.13-4.416,6.608-13.026,6.608-1.08,0-2.129-.032-3.495-.096h0v.002ZM10.42,6.132c0-2.128-1.779-3.622-5.56-3.876v8.069c3.685-.572,5.56-2.001,5.56-4.194h0ZM11.66,16.457c0-2.637-2.192-4.32-5.369-4.32-.413,0-1.017.031-1.429.063v8.832c4.448-.096,6.799-1.906,6.799-4.575h0Z"/>
        <path class="st0" d="M19.814,15.822V7.467c0-4.098-.063-6.354-.128-6.735,1.429-.063,3.717-.127,4.733-.127,8.038,0,11.374,2.51,11.374,6.386,0,3.812-3.24,5.972-7.593,7.021,3.971.127,5.782,1.429,6.799,4.67l1.207,3.876h-5.147c0-.445-.19-1.049-.349-1.684l-.349-1.271c-.89-3.05-1.684-4.194-4.638-4.194h-1.112v.699c0,3.876.063,6.068.127,6.449h-5.051c.063-.381.128-2.637.128-6.735,0,0,0,0-.001,0ZM30.965,7.879c0-2.828-1.779-5.115-6.417-5.623v11.436c4.289-.731,6.417-2.764,6.417-5.813Z"/>
        <path class="st0" d="M64.494,8.863c0-5.136,3.082-8.863,7.847-8.863,4.797,0,7.91,3.794,7.91,8.929s-3.081,8.862-7.815,8.862c-4.797,0-7.942-3.793-7.942-8.929h0ZM73.422,15.879c1.366,0,2.224-1.645,2.224-4.364,0-4.196-1.874-9.601-4.289-9.601-1.398,0-2.256,1.645-2.256,4.364,0,4.196,1.906,9.601,4.32,9.601h0Z"/>
        <path class="st0" d="M83.798,14.836V3.845l-2.097-3.113h5.655l10.706,16.234-.063-4.384c-.127-4.384-1.525-7.879-4.924-11.85h6.29c.476,1.906.635,4.479.635,7.72v14.106h-3.812l-10.452-15.916.063,4.003c.096,4.384,1.525,7.942,4.924,11.913h-6.29c-.477-1.906-.635-4.479-.635-7.72h0s0-.002,0-.002Z"/>
      </g>
    </g>
  </g>
  <g id="Decorative">
    <g>
      <rect class="st1" x="66.806" y="19.693" width="11.135" height="2.863"/>
      <path class="st1" d="M43.83,11.437c-1.715-1.811-3.145-3.622-3.145-5.878,0-3.336,3.145-5.559,8.451-5.559,5.178,0,7.529,2.192,7.529,4.638,0,2.701-2.923,4.035-5.909,5.21,0,.032.032.063.063.096l5.591,6.099c.19-.54.318-1.112.318-1.747,0-2.097-1.429-3.526-2.319-4.257l6.957-2.351c.19.667.381,1.493.381,2.446,0,2.828-1.429,5.56-3.654,7.752l4.289,4.67h-8.292c0-.222-.349-.635-.921-1.271-2.224,1.048-4.67,1.652-7.085,1.652-4.384,0-7.434-1.938-7.434-5.305,0-2.987,2.446-4.797,5.178-6.195h.002ZM50.089,19.888c.54,0,1.08-.063,1.588-.159-.477-.476-1.017-1.049-1.588-1.652l-4.257-4.543c-.19-.19-.381-.381-.54-.572-.54.699-.826,1.493-.826,2.383,0,2.542,2.383,4.543,5.623,4.543ZM49.485,8.483c.921-.826,1.588-1.874,1.588-3.367,0-1.747-.921-2.859-2.351-2.891-1.144,0-2.033.699-2.033,1.874,0,1.08.763,2.129,2.795,4.384h0Z"/>
    </g>
  </g>
</svg>