<?xml version="1.0" encoding="UTF-8"?>
<svg id="b" data-name="Layer 2" xmlns="http://www.w3.org/2000/svg" width="156" height="35.782" viewBox="0 0 156 35.782">
  <defs>
    <style>
      .d {
        fill: #fff;
      }
    </style>
  </defs>
  <g id="c" data-name="Layer 1">
    <g>
      <rect class="d" x="104.218" y="30.721" width="17.371" height="4.466"/>
      <path class="d" d="M0,35.286c.099-.595.199-4.114.199-10.358v-13.431C.199,5.253.099,1.734,0,1.14c2.478-.149,5.105-.198,6.939-.198,11.399,0,16.305,2.379,16.305,7.384,0,4.262-3.419,6.691-9.912,8.276,7.83.248,12.44,3.221,12.44,8.524,0,6.443-6.889,10.308-20.32,10.308-1.685,0-3.321-.05-5.452-.149ZM16.256,9.565c0-3.32-2.775-5.65-8.673-6.046v12.588c5.749-.892,8.673-3.122,8.673-6.542ZM18.189,25.672c0-4.114-3.42-6.74-8.376-6.74-.644,0-1.586.049-2.23.099v13.778c6.939-.149,10.606-2.974,10.606-7.137Z"/>
      <path class="d" d="M30.91,24.681v-13.034c0-6.393-.099-9.912-.199-10.507,2.23-.099,5.799-.198,7.384-.198,12.539,0,17.743,3.915,17.743,9.962,0,5.947-5.055,9.317-11.845,10.953,6.195.198,9.02,2.23,10.606,7.285l1.883,6.046h-8.029c0-.694-.297-1.636-.545-2.627l-.545-1.982c-1.388-4.758-2.627-6.542-7.236-6.542h-1.735v1.09c0,6.046.099,9.466.198,10.061h-7.88c.099-.595.199-4.114.199-10.507ZM48.305,12.291c0-4.411-2.775-7.979-10.011-8.772v17.841c6.691-1.14,10.011-4.312,10.011-9.069Z"/>
      <path class="d" d="M68.376,17.841c-2.676-2.825-4.906-5.65-4.906-9.169,0-5.204,4.906-8.673,13.183-8.673,8.078,0,11.746,3.419,11.746,7.236,0,4.213-4.56,6.294-9.218,8.128,0,.05.05.099.099.149l8.722,9.515c.297-.843.496-1.735.496-2.726,0-3.271-2.23-5.501-3.618-6.641l10.853-3.667c.297,1.041.595,2.329.595,3.816,0,4.411-2.23,8.673-5.7,12.093l6.691,7.285h-12.935c0-.347-.545-.991-1.437-1.982-3.469,1.635-7.286,2.577-11.052,2.577-6.839,0-11.597-3.023-11.597-8.276,0-4.659,3.816-7.484,8.078-9.664ZM78.139,31.024c.843,0,1.685-.099,2.478-.248-.744-.743-1.586-1.636-2.478-2.577l-6.641-7.087c-.297-.297-.595-.595-.843-.892-.843,1.09-1.288,2.329-1.288,3.717,0,3.965,3.717,7.087,8.772,7.087ZM77.197,13.232c1.437-1.289,2.478-2.924,2.478-5.253,0-2.726-1.437-4.46-3.667-4.51-1.784,0-3.172,1.09-3.172,2.924,0,1.685,1.19,3.321,4.361,6.839Z"/>
      <path class="d" d="M100.612,13.825c0-8.012,4.808-13.825,12.241-13.825,7.483,0,12.34,5.918,12.34,13.93s-4.807,13.825-12.192,13.825c-7.484,0-12.39-5.917-12.39-13.93ZM114.539,24.77c2.131,0,3.469-2.566,3.469-6.808,0-6.546-2.924-14.977-6.691-14.977-2.181,0-3.519,2.566-3.519,6.808,0,6.546,2.974,14.977,6.74,14.977Z"/>
      <path class="d" d="M130.725,23.144V5.997l-3.271-4.857h8.822l16.702,25.325-.099-6.839c-.198-6.839-2.379-12.291-7.682-18.486h9.813c.743,2.973.991,6.988.991,12.043v22.005h-5.947l-16.305-24.829.099,6.245c.149,6.839,2.379,12.39,7.682,18.585h-9.813c-.744-2.974-.991-6.988-.991-12.043Z"/>
    </g>
  </g>
</svg>