<svg id="logo" xmlns="http://www.w3.org/2000/svg" version="1.1" viewBox="0 0 44.054 49.189">
  <path fill="currentColor" d="M42.712,27.41c.128-.213.242-.434.341-.662,1.3-3.073-.4-6.591-1.019-7.7.221-1.407.658-6.087-2.847-7.882-.701-.361-1.444-.636-2.211-.818.641-3.475-.968-5.919-2.883-6.77-.437-.191-.901-.31-1.376-.353-.015-.014-.022-.033-.039-.047C29.178.372,25.564-.678,23.228.441c-.46.221-.869.535-1.201.923-.331-.388-.74-.703-1.2-.924-2.334-1.117-5.955-.071-9.45,2.737-.017.014-.024.033-.039.047-.475.042-.939.162-1.376.353-1.915.851-3.524,3.3-2.883,6.77-.767.182-1.51.457-2.211.818-3.5,1.795-3.068,6.475-2.847,7.882-.619,1.11-2.324,4.628-1.019,7.7.099.228.213.449.341.662-1.295,1.515-1.687,3.604-1.028,5.485.485,1.703,1.56,3.179,3.033,4.163-.29,2.166.378,4.35,1.828,5.984.936,1.145,2.241,1.927,3.692,2.213,1.043,2.443,3.472,4,6.127,3.929.381,0,.762-.026,1.14-.075,2.367-.155,4.536-1.378,5.892-3.325,1.355,1.948,3.524,3.173,5.892,3.329.378.049.759.074,1.14.075,2.655.071,5.084-1.487,6.127-3.929,1.451-.286,2.756-1.068,3.692-2.213,1.45-1.634,2.118-3.818,1.828-5.984,1.473-.985,2.548-2.462,3.033-4.167.659-1.88.268-3.969-1.027-5.484ZM15.881,47.129c-4.182.527-5.231-2.738-5.334-3.107-.128-.478-.585-.791-1.077-.736-1.109-.091-2.125-.658-2.785-1.554-1.218-1.378-1.678-3.269-1.228-5.053.136-.535-.188-1.079-.723-1.216-.039-.01-.078-.017-.117-.022-.519-.068-1.851-1.334-2.386-3.118-.394-1.129-.227-2.378.448-3.365,1.301,1.002,2.829,1.669,4.448,1.942.544.097,1.063-.264,1.161-.808.094-.525-.241-1.032-.761-1.151-2.484-.51-4.06-1.509-4.683-2.969-1.132-2.654,1.048-6.168,1.071-6.2.138-.221.185-.488.132-.743-.01-.047-.961-4.7,1.732-6.081,2.1-1.077,4.185-1.091,5.711-.036,1.432,1.043,2.176,2.788,1.937,4.543-.061.549.335,1.044.884,1.105.549.061,1.044-.335,1.105-.884.321-2.488-.75-4.952-2.79-6.413-1.044-.715-2.275-1.108-3.541-1.131-.507-2.489.467-4.185,1.686-4.727,1.462-.649,3.144.183,4.389,2.172.293.469.912.612,1.381.319s.612-.912.319-1.381h0c-.68-1.168-1.669-2.126-2.859-2.767,2.636-1.726,4.835-2.045,5.965-1.505.755.428,1.174,1.272,1.061,2.132v9.538c-.094-.075-.185-.156-.284-.223-.999-.709-2.291-.856-3.424-.391-.518.192-.782.768-.59,1.285.192.518.768.782,1.285.59.018-.007.035-.014.052-.021.518-.212,1.109-.136,1.557.2.926.734,1.448,1.866,1.403,3.047v17c-.161-.146-.327-.288-.5-.421-1.122-.944-2.616-1.318-4.05-1.014-.53.154-.835.71-.681,1.24.154.53.71.835,1.24.681.828-.11,1.663.142,2.291.692.999.696,1.625,1.811,1.7,3.027v3.173c0,.037-.14,3.716-5.146,4.351ZM41.827,32.323c-.535,1.784-1.867,3.05-2.386,3.118-.548.071-.934.573-.862,1.121.005.039.013.079.022.117.45,1.784-.01,3.675-1.228,5.053-.66.896-1.676,1.462-2.785,1.554-.49-.055-.946.255-1.076.73-.1.375-1.155,3.647-5.335,3.113-5.01-.635-5.15-4.314-5.15-4.351V13.808c-.041-.49.135-.973.481-1.321.611-.419,1.351-.604,2.087-.523.549.062,1.044-.333,1.106-.882.062-.549-.333-1.044-.882-1.107-.956-.084-1.917.077-2.793.468v-6.069c-.113-.861.309-1.705,1.065-2.132,1.13-.54,3.329-.221,5.965,1.505-1.19.642-2.179,1.599-2.859,2.767-.293.469-.15,1.088.319,1.381s1.088.15,1.381-.319c1.246-1.989,2.927-2.821,4.389-2.172,1.219.542,2.193,2.238,1.686,4.727-1.267.022-2.5.415-3.546,1.131-2.04,1.461-3.111,3.925-2.79,6.413.061.549.556.945,1.105.884s.945-.556.884-1.105h0c-.24-1.757.505-3.503,1.938-4.546,1.526-1.055,3.609-1.041,5.711.036,2.693,1.379,1.742,6.034,1.732,6.081-.053.255-.006.522.132.743.023.035,2.2,3.549,1.071,6.2-.623,1.46-2.2,2.459-4.683,2.969-.544.097-.905.617-.808,1.161.097.544.617.905,1.161.808.016-.003.032-.006.047-.01,1.619-.273,3.146-.94,4.446-1.942.678.987.847,2.237.454,3.368ZM26.094,21.86c-.435-.34-.512-.97-.172-1.405.34-.435.97-.512,1.405-.172,2.03,1.585,3.819,2.079,5.32,1.47,1.91-.776,3.056-3.234,3.342-5.326.075-.547.58-.93,1.127-.855s.93.58.855,1.127h0c-.338,2.467-1.739,5.756-4.572,6.907-.352.14-.718.243-1.092.307.089.417.285.804.567,1.124.662.62,1.55.937,2.455.878.552.005.996.457.991,1.01-.005.552-.457.996-1.01.99h-.018c-1.467.064-2.892-.501-3.917-1.553-.603-.693-.986-1.55-1.1-2.461-1.54-.328-2.975-1.029-4.181-2.041ZM35.473,36.194c-.008.547-.453.986-1,.986h-.01c-.684.007-1.364.118-2.015.327-.017.007-.035.011-.053.017-.791.233-1.515.649-2.114,1.215-.855.907-1.302,2.124-1.235,3.369,0,.552-.448,1-1,1s-1-.448-1-1c-.076-1.785.589-3.522,1.838-4.8.65-.629,1.418-1.123,2.26-1.454.101-1.402-.282-2.797-1.084-3.951-.993-1.138-2.423-1.8-3.933-1.82-.55-.046-.959-.53-.913-1.08.039-.544.512-.954,1.056-.915.008,0,.015.001.023.002,2.075.053,4.026.998,5.353,2.594.977,1.341,1.503,2.959,1.5,4.619.442-.074.89-.115,1.338-.121.552.006.995.459.989,1.011,0,0,0,0,0,.001ZM7.177,17.794c-.066-.548.324-1.047.873-1.113.535-.065,1.026.307,1.108.84.288,2.093,1.433,4.551,3.345,5.326,1.5.61,3.289.115,5.318-1.469.445-.327,1.071-.232,1.398.213.314.427.24,1.025-.168,1.363-1.205,1.011-2.639,1.712-4.177,2.04-.113.912-.496,1.769-1.1,2.461-1.025,1.052-2.45,1.617-3.917,1.554h-.018c-.552.005-1.004-.438-1.009-.991-.005-.552.438-1.004.99-1.009.911.061,1.806-.263,2.468-.892.276-.317.468-.699.557-1.11-.374-.064-.741-.166-1.094-.307-2.834-1.151-4.235-4.441-4.574-6.906ZM14.077,38.403c1.249,1.278,1.915,3.015,1.839,4.8,0,.552-.448,1-1,1s-1-.448-1-1c.066-1.245-.38-2.463-1.236-3.369-1.171-.989-2.649-1.54-4.181-1.559h-.009c-.552.004-1.004-.44-1.008-.992-.004-.552.44-1.004.992-1.008.449.002.897.042,1.339.119-.002-1.659.523-3.275,1.5-4.616,1.327-1.597,3.278-2.545,5.354-2.6.551-.046,1.034.363,1.08.914.046.551-.363,1.034-.914,1.08h0c-1.51.021-2.94.683-3.932,1.822-.801,1.155-1.183,2.549-1.083,3.951.841.333,1.609.827,2.26,1.456v.002Z"/>
</svg>