<?xml version="1.0" encoding="UTF-8"?>
<svg xmlns="http://www.w3.org/2000/svg" xmlns:svg="http://www.w3.org/2000/svg" xmlns:sodipodi="http://sodipodi.sourceforge.net/DTD/sodipodi-0.dtd" xmlns:rdf="http://www.w3.org/1999/02/22-rdf-syntax-ns#" xmlns:inkscape="http://www.inkscape.org/namespaces/inkscape" xmlns:dc="http://purl.org/dc/elements/1.1/" xmlns:cc="http://creativecommons.org/ns#" version="1.1" viewBox="0 0 290.2 329.1">
  <!-- Generator: Adobe Illustrator 30.0.0, SVG Export Plug-In . SVG Version: 2.1.1 Build 123)  -->
  <defs>
    <style>
      .st0 {
        fill: #ebebeb;
      }

      .st1 {
        fill: #2965f1;
      }

      .st2 {
        fill: #fff;
      }

      .st3 {
        fill: #264de4;
      }
    </style>
  </defs>
  <g id="svg3476" inkscape:version="0.91 r13725" sodipodi:docname="CSS3.svg">
    <sodipodi:namedview id="base" bordercolor="#666666" borderopacity="1.0" fit-margin-bottom="0" fit-margin-left="0" fit-margin-right="0" fit-margin-top="0" inkscape:current-layer="layer1" inkscape:cx="181.367" inkscape:cy="256" inkscape:document-units="px" inkscape:pageopacity="0.0" inkscape:pageshadow="2" inkscape:window-height="704" inkscape:window-maximized="1" inkscape:window-width="1366" inkscape:window-x="0" inkscape:window-y="27" inkscape:zoom="0.35" pagecolor="#ffffff" showgrid="false"/>
    <g id="layer1" inkscape:groupmode="layer" inkscape:label="Calque 1">
      <g id="g3013">
        <polygon id="polygon2989" class="st3" points="290.2 0 263.8 296.2 144.9 329.1 26.4 296.2 0 0 290.2 0"/>
        <polygon id="polygon2991" class="st1" points="241.1 277.3 263.7 24.2 145.1 24.2 145.1 303.9 241.1 277.3"/>
        <polygon id="polygon2993" class="st0" points="60.5 134.1 63.8 170.4 145.1 170.4 145.1 134.1 60.5 134.1"/>
        <polygon id="polygon2995" class="st0" points="145.1 60.5 145 60.5 54 60.5 57.3 96.9 145.1 96.9 145.1 60.5"/>
        <polygon id="polygon2997" class="st0" points="145.1 266.2 145.1 228.4 144.9 228.5 104.5 217.5 101.9 188.6 82.2 188.6 65.4 188.6 70.5 245.6 144.9 266.3 145.1 266.2"/>
        <polygon id="polygon3005" class="st2" points="189.7 170.4 185.5 217.5 145 228.5 145 266.3 219.4 245.6 220 239.5 228.5 143.8 229.4 134.1 236 60.5 145 60.5 145 96.9 196.2 96.9 192.9 134.1 145 134.1 145 170.4 189.7 170.4"/>
      </g>
    </g>
  </g>
</svg>